ffmpeg started on 2016-11-24 at 09:49:07
Report written to "Output/NVENCh264/results/ffmpeg/crowd_run_2160p50hp3500k.log"
Command line:
Tools/ffmpeg/ffmpeg -benchmark -y -i Input/y4m/crowd_run_2160p50.y4m -c:v h264_nvenc -preset hp -b:v 3500k -an Output/NVENCh264/encoded/crowd_run_2160p50hp3500k.mkv
ffmpeg version N-82227-gdb23fde Copyright (c) 2000-2016 the FFmpeg developers
  built with gcc 5.4.0 (Ubuntu 5.4.0-6ubuntu1~16.04.2) 20160609
  configuration: --prefix=/home/jaroslav/ffmpeg_build --pkg-config-flags=--static --extra-cflags=-I/home/jaroslav/ffmpeg_build/include --extra-ldflags=-L/home/jaroslav/ffmpeg_build/lib --bindir=/home/jaroslav/bin --enable-gpl --enable-libass --enable-libfdk-aac --enable-libfreetype --enable-libmp3lame --enable-libopus --enable-libtheora --enable-libvorbis --enable-libvpx --enable-libx264 --enable-libx265 --enable-nvenc --enable-libmfx --enable-libxvid --enable-libgsm --enable-libopencore-amrnb --enable-version3 --enable-nonfree
  libavutil      55. 35.100 / 55. 35.100
  libavcodec     57. 66.101 / 57. 66.101
  libavformat    57. 57.100 / 57. 57.100
  libavdevice    57.  2.100 / 57.  2.100
  libavfilter     6. 66.100 /  6. 66.100
  libswscale      4.  3.100 /  4.  3.100
  libswresample   2.  4.100 /  2.  4.100
  libpostproc    54.  2.100 / 54.  2.100
Input #0, yuv4mpegpipe, from 'Input/y4m/crowd_run_2160p50.y4m':
  Duration: 00:00:10.00, start: 0.000000, bitrate: 4976642 kb/s
    Stream #0:0: Video: rawvideo (I420 / 0x30323449), yuv420p(progressive), 3840x2160, SAR 1:1 DAR 16:9, 50 fps, 50 tbr, 50 tbn, 50 tbc
Output #0, matroska, to 'Output/NVENCh264/encoded/crowd_run_2160p50hp3500k.mkv':
  Metadata:
    encoder         : Lavf57.57.100
    Stream #0:0: Video: h264 (h264_nvenc) (Main) (H264 / 0x34363248), yuv420p, 3840x2160 [SAR 1:1 DAR 16:9], q=-1--1, 3500 kb/s, 50 fps, 1k tbn, 50 tbc
    Metadata:
      encoder         : Lavc57.66.101 h264_nvenc
    Side data:
      cpb: bitrate max/min/avg: 0/0/3500000 buffer size: 7000000 vbv_delay: -1
Stream mapping:
  Stream #0:0 -> #0:0 (rawvideo (native) -> h264 (h264_nvenc))
Press [q] to stop, [?] for help
frame=   15 fps=0.0 q=0.0 size=       0kB time=00:00:00.00 bitrate=N/A speed=   0x    frame=   30 fps= 29 q=0.0 size=       0kB time=00:00:00.00 bitrate=N/A speed=   0x    frame=   32 fps= 19 q=49.0 size=       1kB time=00:00:00.02 bitrate= 279.2kbits/s speed=0.0126x    frame=   36 fps= 14 q=49.0 size=       1kB time=00:00:00.10 bitrate=  58.1kbits/s speed=0.0402x    frame=   40 fps=6.6 q=49.0 size=       1kB time=00:00:00.18 bitrate=  32.4kbits/s speed=0.0299x    frame=   41 fps=4.2 q=49.0 size=       1kB time=00:00:00.20 bitrate=  29.2kbits/s speed=0.0207x    frame=   42 fps=3.3 q=49.0 size=       1kB time=00:00:00.22 bitrate=  26.5kbits/s speed=0.0171x    frame=   59 fps=4.4 q=49.0 size=       1kB time=00:00:00.56 bitrate=  10.5kbits/s speed=0.0418x    frame=   77 fps=5.5 q=49.0 size=       1kB time=00:00:00.92 bitrate=   6.4kbits/s speed=0.0661x    frame=   84 fps=5.8 q=49.0 size=       1kB time=00:00:01.06 bitrate=   5.5kbits/s speed=0.0732x    frame=   87 fps=5.8 q=49.0 size=       1kB time=00:00:01.12 bitrate=   5.2kbits/s speed=0.0747x    frame=   90 fps=5.6 q=49.0 size=       1kB time=00:00:01.18 bitrate=   5.0kbits/s speed=0.0731x    frame=   91 fps=5.4 q=49.0 size=       1kB time=00:00:01.20 bitrate=   4.9kbits/s speed=0.0711x    frame=   97 fps=5.6 q=49.0 size=       1kB time=00:00:01.32 bitrate=   4.4kbits/s speed=0.0758x    frame=  114 fps=6.4 q=49.0 size=       1kB time=00:00:01.66 bitrate=   3.5kbits/s speed=0.0927x    frame=  132 fps=7.2 q=49.0 size=       1kB time=00:00:02.02 bitrate=   2.9kbits/s speed=0.11x    frame=  140 fps=7.4 q=49.0 size=       1kB time=00:00:02.18 bitrate=   2.7kbits/s speed=0.115x    frame=  142 fps=7.2 q=49.0 size=       1kB time=00:00:02.22 bitrate=   2.6kbits/s speed=0.113x    frame=  148 fps=7.3 q=49.0 size=       1kB time=00:00:02.34 bitrate=   2.5kbits/s speed=0.116x    frame=  153 fps=7.3 q=49.0 size=       1kB time=00:00:02.44 bitrate=   2.4kbits/s speed=0.116x    frame=  158 fps=7.3 q=49.0 size=       1kB time=00:00:02.54 bitrate=   2.3kbits/s speed=0.117x    frame=  171 fps=7.7 q=49.0 size=       1kB time=00:00:02.80 bitrate=   2.1kbits/s speed=0.126x    frame=  179 fps=7.9 q=49.0 size=       1kB time=00:00:02.96 bitrate=   2.0kbits/s speed=0.13x    frame=  181 fps=7.8 q=49.0 size=       1kB time=00:00:03.00 bitrate=   2.0kbits/s speed=0.129x    frame=  184 fps=7.7 q=49.0 size=       1kB time=00:00:03.06 bitrate=   1.9kbits/s speed=0.129x    frame=  185 fps=7.6 q=49.0 size=       1kB time=00:00:03.08 bitrate=   1.9kbits/s speed=0.126x    frame=  188 fps=7.5 q=49.0 size=       1kB time=00:00:03.14 bitrate=   1.9kbits/s speed=0.126x    frame=  193 fps=7.6 q=49.0 size=       1kB time=00:00:03.24 bitrate=   1.8kbits/s speed=0.127x    frame=  200 fps=7.7 q=49.0 size=       1kB time=00:00:03.38 bitrate=   1.7kbits/s speed=0.13x    frame=  202 fps=7.4 q=49.0 size=       1kB time=00:00:03.42 bitrate=   1.7kbits/s speed=0.126x    frame=  204 fps=7.2 q=49.0 size=       1kB time=00:00:03.46 bitrate=   1.7kbits/s speed=0.123x    frame=  207 fps=7.1 q=49.0 size=       1kB time=00:00:03.52 bitrate=   1.7kbits/s speed=0.121x    frame=  213 fps=7.1 q=49.0 size=       1kB time=00:00:03.64 bitrate=   1.6kbits/s speed=0.122x    frame=  214 fps=7.0 q=49.0 size=       1kB time=00:00:03.66 bitrate=   1.6kbits/s speed=0.12x    frame=  215 fps=6.9 q=49.0 size=       1kB time=00:00:03.68 bitrate=   1.6kbits/s speed=0.118x    frame=  219 fps=6.8 q=49.0 size=       1kB time=00:00:03.76 bitrate=   1.6kbits/s speed=0.117x    frame=  221 fps=6.6 q=49.0 size=       1kB time=00:00:03.80 bitrate=   1.5kbits/s speed=0.114x    frame=  223 fps=6.5 q=49.0 size=       1kB time=00:00:03.84 bitrate=   1.5kbits/s speed=0.112x    frame=  227 fps=6.4 q=49.0 size=       1kB time=00:00:03.92 bitrate=   1.5kbits/s speed=0.111x    frame=  229 fps=6.3 q=49.0 size=       1kB time=00:00:03.96 bitrate=   1.5kbits/s speed=0.109x    frame=  231 fps=6.2 q=49.0 size=       1kB time=00:00:04.00 bitrate=   1.5kbits/s speed=0.107x    frame=  232 fps=6.1 q=49.0 size=       1kB time=00:00:04.02 bitrate=   1.5kbits/s speed=0.106x    frame=  234 fps=6.1 q=49.0 size=       1kB time=00:00:04.06 bitrate=   1.4kbits/s speed=0.105x    frame=  236 fps=5.9 q=49.0 size=       1kB time=00:00:04.10 bitrate=   1.4kbits/s speed=0.103x    frame=  238 fps=5.9 q=49.0 size=       1kB time=00:00:04.14 bitrate=   1.4kbits/s speed=0.102x    frame=  239 fps=5.8 q=49.0 size=       1kB time=00:00:04.16 bitrate=   1.4kbits/s speed=0.101x    frame=  244 fps=5.8 q=49.0 size=       1kB time=00:00:04.26 bitrate=   1.4kbits/s speed=0.101x    frame=  251 fps=5.9 q=49.0 size=       1kB time=00:00:04.40 bitrate=   1.3kbits/s speed=0.103x    frame=  252 fps=5.8 q=49.0 size=       1kB time=00:00:04.42 bitrate=   1.3kbits/s speed=0.101x    frame=  253 fps=5.7 q=49.0 size=       1kB time=00:00:04.44 bitrate=   1.3kbits/s speed=0.0999x    frame=  255 fps=5.6 q=49.0 size=       1kB time=00:00:04.48 bitrate=   1.3kbits/s speed=0.0983x    frame=  257 fps=5.5 q=49.0 size=       1kB time=00:00:04.52 bitrate=   1.3kbits/s speed=0.097x    frame=  259 fps=5.5 q=49.0 size=       1kB time=00:00:04.56 bitrate=   1.3kbits/s speed=0.0968x    frame=  260 fps=5.4 q=49.0 size=       1kB time=00:00:04.58 bitrate=   1.3kbits/s speed=0.0958x    frame=  261 fps=5.4 q=49.0 size=       1kB time=00:00:04.60 bitrate=   1.3kbits/s speed=0.0949x    frame=  267 fps=5.4 q=49.0 size=       1kB time=00:00:04.72 bitrate=   1.2kbits/s speed=0.0963x    frame=  271 fps=5.4 q=49.0 size=       1kB time=00:00:04.80 bitrate=   1.2kbits/s speed=0.0963x    frame=  272 fps=5.4 q=49.0 size=       1kB time=00:00:04.82 bitrate=   1.2kbits/s speed=0.0954x    frame=  274 fps=5.3 q=49.0 size=       1kB time=00:00:04.86 bitrate=   1.2kbits/s speed=0.0941x    frame=  275 fps=5.3 q=49.0 size=       1kB time=00:00:04.88 bitrate=   1.2kbits/s speed=0.0936x    frame=  278 fps=5.3 q=49.0 size=       1kB time=00:00:04.94 bitrate=   1.2kbits/s speed=0.0936x    frame=  284 fps=5.3 q=49.0 size=    3901kB time=00:00:05.06 bitrate=6314.4kbits/s speed=0.0949x    frame=  295 fps=5.4 q=49.0 size=    3901kB time=00:00:05.28 bitrate=6051.3kbits/s speed=0.0973x    frame=  301 fps=5.5 q=49.0 size=    3901kB time=00:00:05.40 bitrate=5916.9kbits/s speed=0.0985x    frame=  309 fps=5.6 q=49.0 size=    3901kB time=00:00:05.56 bitrate=5746.6kbits/s speed= 0.1x    frame=  327 fps=5.8 q=49.0 size=    3901kB time=00:00:05.92 bitrate=5397.2kbits/s speed=0.106x    frame=  345 fps=6.1 q=49.0 size=    3901kB time=00:00:06.28 bitrate=5087.9kbits/s speed=0.111x    frame=  363 fps=6.4 q=49.0 size=    3901kB time=00:00:06.64 bitrate=4812.1kbits/s speed=0.117x    frame=  381 fps=6.6 q=49.0 size=    3901kB time=00:00:07.00 bitrate=4564.6kbits/s speed=0.122x    frame=  399 fps=6.9 q=49.0 size=    3901kB time=00:00:07.36 bitrate=4341.4kbits/s speed=0.127x    frame=  412 fps=7.0 q=49.0 size=    3901kB time=00:00:07.62 bitrate=4193.3kbits/s speed=0.13x    frame=  430 fps=7.3 q=49.0 size=    3901kB time=00:00:07.98 bitrate=4004.1kbits/s speed=0.135x    frame=  448 fps=7.5 q=49.0 size=    3901kB time=00:00:08.34 bitrate=3831.3kbits/s speed=0.14x    frame=  466 fps=7.7 q=49.0 size=    3901kB time=00:00:08.70 bitrate=3672.8kbits/s speed=0.144x    frame=  484 fps=8.0 q=49.0 size=    3901kB time=00:00:09.06 bitrate=3526.9kbits/s speed=0.149x    frame=  500 fps=8.1 q=49.0 size=    3901kB time=00:00:09.38 bitrate=3406.6kbits/s speed=0.152x    frame=  500 fps=8.1 q=49.0 Lsize=    8069kB time=00:00:09.98 bitrate=6622.8kbits/s speed=0.162x    
video:8065kB audio:0kB subtitle:0kB other streams:0kB global headers:0kB muxing overhead: 0.055072%
bench: utime=1.248s
bench: maxrss=979748kB
